<?xml version="1.0" standalone="no"?>
<!DOCTYPE svg PUBLIC "-//W3C//DTD SVG 20010904//EN"
 "http://www.w3.org/TR/2001/REC-SVG-20010904/DTD/svg10.dtd">
<svg version="1.0" xmlns="http://www.w3.org/2000/svg"
 width="960.000000pt" height="350.000000pt" viewBox="0 0 960.000000 350.000000"
 preserveAspectRatio="xMidYMid meet">

<g transform="translate(0.000000,350.000000) scale(0.100000,-0.100000)"
fill="#000000" stroke="none">
<path d="M2103 2170 c-67 -5 -130 -13 -141 -19 -13 -7 -24 -29 -31 -61 -19
-86 -30 -80 148 -80 l160 0 7 45 c3 25 9 45 13 44 7 0 204 -240 199 -243 -1
-1 -65 -55 -140 -119 -75 -64 -139 -117 -141 -117 -2 0 -1 19 4 43 4 23 8 48
9 55 0 10 -37 12 -167 10 l-167 -3 -49 -243 c-42 -204 -48 -245 -36 -253 23
-14 166 -11 181 4 7 8 29 78 47 155 l33 142 103 0 c304 0 440 77 502 284 22
70 21 182 0 222 -59 113 -228 155 -534 134z"/>
<path d="M5800 2099 c-49 -20 -65 -45 -84 -131 -6 -25 -11 -28 -44 -28 -43 0
-62 -14 -62 -47 0 -19 7 -24 40 -29 29 -5 40 -11 40 -24 0 -48 -71 -405 -82
-412 -7 -4 -29 -8 -49 -8 -39 0 -49 -12 -49 -56 0 -23 3 -24 68 -24 78 0 122
21 140 66 7 16 29 124 50 239 l37 210 45 3 c49 4 60 13 60 55 0 25 -3 27 -45
27 -48 0 -51 4 -34 47 13 35 25 43 70 43 34 0 37 2 41 35 3 23 -1 36 -10 40
-22 8 -105 5 -132 -6z"/>
<path d="M7103 2102 c-7 -4 -16 -29 -19 -55 l-7 -47 56 0 56 0 6 38 c12 69 13
67 -35 70 -25 1 -51 -1 -57 -6z"/>
<path d="M3465 2083 c-11 -3 -24 -9 -30 -14 -11 -11 -115 -579 -108 -591 7
-13 103 -9 108 5 3 6 13 57 23 112 l17 100 80 6 c44 4 100 12 125 20 113 34
184 191 132 289 -31 57 -79 75 -212 77 -63 1 -124 -1 -135 -4z m204 -94 c18
-6 36 -21 40 -32 13 -35 -7 -100 -39 -129 -27 -25 -38 -28 -103 -28 l-73 0 15
88 c9 48 20 93 24 100 10 15 93 16 136 1z"/>
<path d="M5310 2068 c-33 -17 -51 -35 -67 -68 -27 -55 -87 -380 -79 -429 7
-43 40 -78 86 -92 43 -13 235 -8 248 6 5 6 12 25 15 43 l7 32 -95 0 c-51 0
-106 5 -121 10 -27 10 -27 11 -20 82 3 39 9 74 12 79 3 5 57 9 119 9 125 0
135 5 135 64 l0 26 -116 0 -117 0 6 50 c3 28 12 63 19 78 13 27 15 27 130 32
64 3 118 7 121 10 2 3 7 21 11 41 6 35 5 37 -25 43 -17 3 -75 6 -128 6 -80 0
-104 -4 -141 -22z"/>
<path d="M6881 2029 c-52 -10 -52 -9 -60 -51 -6 -31 -10 -33 -51 -36 -47 -4
-60 -14 -60 -49 0 -18 7 -23 38 -29 20 -4 40 -8 43 -10 3 -2 -4 -61 -17 -131
-30 -168 -30 -198 1 -228 21 -22 33 -25 90 -25 44 0 67 4 69 13 3 6 7 24 10
40 6 26 5 27 -34 27 -25 0 -43 5 -46 14 -5 12 8 93 37 244 l10 52 44 0 c45 0
55 10 55 56 0 22 -4 24 -44 24 l-44 0 9 42 c6 22 6 44 2 48 -4 4 -28 3 -52 -1z"/>
<path d="M3925 1926 c-34 -10 -41 -17 -49 -49 -5 -20 -7 -39 -4 -42 3 -3 25
-1 49 4 24 6 67 11 96 11 59 0 74 -14 66 -66 l-5 -31 -88 -5 c-105 -6 -146
-26 -173 -81 -10 -20 -19 -58 -19 -83 0 -82 53 -114 184 -114 46 0 100 5 120
10 42 12 40 7 78 232 19 115 20 130 6 163 -11 25 -26 40 -50 50 -42 18 -154
18 -211 1z m131 -296 c-10 -77 -13 -80 -63 -80 -62 0 -83 14 -83 53 0 55 29
76 104 77 l49 0 -7 -50z"/>
<path d="M4380 1924 c-72 -31 -99 -71 -124 -181 -43 -193 5 -273 167 -273 l66
0 -10 -30 c-15 -40 -56 -51 -155 -39 -42 6 -82 11 -88 12 -6 1 -12 -14 -14
-34 -3 -36 -2 -36 53 -54 42 -13 78 -16 134 -13 93 5 134 26 161 83 16 34 100
458 100 507 0 36 -220 52 -290 22z m170 -88 c0 -13 -36 -216 -45 -253 -5 -21
-11 -23 -69 -23 -84 0 -91 9 -83 103 10 120 35 171 89 185 40 10 108 3 108
-12z"/>
<path d="M4857 1930 c-81 -25 -130 -98 -152 -225 -27 -156 28 -235 163 -235
90 0 158 39 194 110 34 66 52 156 46 228 -4 45 -10 59 -41 90 -35 35 -41 37
-109 39 -40 1 -86 -2 -101 -7z m124 -101 c19 -19 21 -29 15 -90 -3 -38 -13
-87 -22 -109 -32 -80 -137 -95 -164 -25 -10 25 1 108 22 173 19 63 107 93 149
51z"/>
<path d="M6035 1927 c-85 -34 -128 -101 -147 -233 -10 -72 -10 -87 6 -128 25
-66 64 -90 152 -94 47 -3 91 2 128 12 47 14 57 21 62 44 3 15 7 32 9 39 6 19
-4 21 -63 7 -130 -31 -192 -11 -192 61 l0 35 144 0 c165 0 156 -6 156 103 0
74 -26 128 -74 151 -40 19 -136 20 -181 3z m129 -92 c12 -9 19 -28 20 -52 l1
-38 -87 -3 c-79 -2 -88 -1 -88 15 2 69 100 119 154 78z"/>
<path d="M6459 1917 c-56 -30 -95 -91 -114 -182 -19 -92 -19 -143 3 -185 27
-54 74 -80 144 -80 85 0 124 19 132 65 4 20 5 39 3 42 -3 2 -22 0 -44 -6 -60
-17 -107 -14 -128 9 -15 16 -17 30 -11 82 17 169 64 213 186 178 40 -11 47 -6
56 38 6 30 4 33 -29 47 -56 23 -146 19 -198 -8z"/>
<path d="M7066 1923 c-9 -33 -76 -410 -76 -432 0 -19 6 -21 49 -21 39 0 51 4
55 18 8 26 76 414 76 434 0 26 -96 27 -104 1z"/>
<path d="M7226 1932 c-3 -5 4 -99 15 -208 24 -236 29 -247 107 -252 78 -5 96
18 202 252 49 109 90 203 90 208 0 5 -25 8 -56 6 l-56 -3 -77 -187 c-42 -104
-81 -188 -88 -188 -7 0 -13 34 -17 98 -4 53 -10 138 -14 187 l-7 90 -47 3
c-25 2 -49 -1 -52 -6z"/>
<path d="M7745 1921 c-74 -34 -113 -100 -135 -227 -13 -74 -6 -120 27 -171 34
-52 159 -71 238 -34 74 34 111 91 134 209 23 112 5 177 -58 219 -44 30 -146
32 -206 4z m145 -91 c24 -24 25 -58 4 -150 -12 -55 -22 -75 -46 -95 -41 -35
-93 -31 -121 7 -19 26 -20 32 -7 100 14 83 30 120 62 142 31 22 84 20 108 -4z"/>
</g>
</svg>
