<?xml version="1.0" standalone="no"?>
<!DOCTYPE svg PUBLIC "-//W3C//DTD SVG 20010904//EN"
 "http://www.w3.org/TR/2001/REC-SVG-20010904/DTD/svg10.dtd">
<svg version="1.0" xmlns="http://www.w3.org/2000/svg"
 width="270.000000pt" height="186.000000pt" viewBox="0 0 270.000000 186.000000"
 preserveAspectRatio="xMidYMid meet">

<g transform="translate(0.000000,186.000000) scale(0.100000,-0.100000)"
fill="#000000" stroke="none">
<path d="M653 1619 c-57 -4 -78 -11 -107 -33 -67 -50 -53 -6 -187 -586 -55
-239 -113 -490 -130 -557 -36 -152 -36 -170 0 -213 l29 -35 925 0 925 0 38 31
c21 16 46 41 56 55 17 23 53 169 163 649 7 30 40 174 74 319 40 171 60 274 56
292 -4 16 -20 40 -37 54 l-30 25 -341 1 c-1047 4 -1369 3 -1434 -2z m-43 -363
c0 -2 -11 -46 -24 -98 -36 -135 -37 -173 -6 -183 28 -9 58 3 72 28 6 12 23 74
38 137 l26 115 42 3 c23 2 42 2 42 0 0 -2 -16 -64 -35 -138 -39 -150 -60 -182
-129 -201 -50 -14 -118 -7 -151 15 -21 14 -25 24 -25 65 0 26 4 61 9 77 5 16
17 64 26 107 l16 77 50 0 c27 0 49 -2 49 -4z m1271 -15 c44 -35 23 -129 -38
-175 -16 -12 -50 -22 -87 -25 l-61 -6 -15 -62 -15 -63 -42 0 c-31 0 -43 4 -43
14 0 8 16 79 35 157 19 79 35 151 35 161 0 16 10 18 104 18 87 0 108 -3 127
-19z m-764 -117 c8 -21 -21 -44 -54 -44 -31 0 -42 29 -18 46 26 19 64 17 72
-2z m-136 -20 c12 -14 9 -45 -12 -144 -11 -50 -11 -50 -50 -50 -21 0 -39 3
-39 8 1 4 7 34 15 67 9 38 11 63 5 69 -16 16 -29 -5 -43 -74 l-13 -65 -37 -3
c-43 -4 -43 -8 -20 109 19 99 13 94 120 96 43 1 65 -3 74 -13z m335 -7 c25
-21 26 -27 20 -71 -11 -70 -48 -107 -113 -113 -46 -5 -54 -2 -78 21 -29 29
-28 58 2 123 28 60 120 82 169 40z m144 13 c0 -7 6 -7 19 0 11 5 31 10 46 10
39 0 45 -31 26 -125 l-16 -80 -39 -3 -39 -3 7 38 c19 116 19 113 3 113 -16 0
-28 -32 -43 -112 -6 -36 -8 -38 -45 -38 -22 0 -39 3 -39 8 0 4 9 47 19 97 16
79 21 90 42 96 37 11 59 10 59 -1z m560 -1 c19 1 44 4 54 7 13 5 17 2 14 -7
-3 -8 -13 -50 -23 -94 -10 -44 -19 -85 -21 -92 -5 -19 -160 -16 -179 3 -20 21
-19 81 3 124 18 38 77 74 102 64 8 -4 31 -6 50 -5z m181 -36 l0 -48 21 41 c17
35 27 43 56 48 45 7 48 4 29 -31 -40 -78 -170 -300 -184 -315 -13 -15 -33 -18
-99 -18 -81 0 -84 1 -90 25 -5 22 -7 23 -22 9 -19 -20 -64 -201 -57 -232 8
-33 33 -24 62 21 l23 37 -30 0 c-25 0 -30 4 -30 25 0 23 4 25 45 25 33 0 45 4
45 14 0 10 -13 16 -39 18 -35 3 -38 5 -30 26 8 21 14 22 114 22 l105 0 0 -25
c0 -22 -4 -25 -40 -25 -29 0 -40 -4 -40 -15 0 -10 10 -15 34 -15 30 0 33 -2
28 -25 -4 -22 -10 -25 -51 -26 -25 -1 -38 -3 -29 -6 9 -2 20 -17 23 -34 4 -16
13 -29 21 -29 11 0 13 -6 9 -22 -11 -34 -19 -40 -50 -32 -17 4 -30 17 -36 34
l-10 27 -33 -33 c-26 -26 -42 -34 -71 -34 -21 0 -34 4 -30 10 3 5 1 10 -4 10
-6 0 -11 -4 -11 -10 0 -5 -16 -10 -35 -10 -19 0 -35 5 -35 10 0 6 -28 10 -65
10 -56 0 -65 3 -65 18 0 10 6 24 12 30 7 7 26 72 43 145 l30 132 148 3 c126 2
147 0 147 -13 0 -8 5 -15 10 -15 6 0 11 -10 11 -22 2 -23 2 -23 6 -2 2 12 12
24 22 27 10 2 32 29 48 58 33 58 33 52 9 216 -4 28 -2 32 22 36 63 10 62 10
63 -40z m-1091 0 c0 -4 -8 -43 -17 -85 l-16 -78 -45 0 c-38 0 -43 2 -37 18 4
9 12 44 19 77 14 64 8 60 89 74 4 0 7 -2 7 -6z m200 -258 c0 -10 11 -15 35
-15 31 0 34 -2 27 -21 -7 -17 -17 -22 -58 -23 -27 -1 -58 -7 -69 -14 -23 -13
-17 -15 63 -12 50 1 52 0 52 -24 0 -24 -4 -26 -40 -26 -33 0 -40 -3 -40 -20 0
-16 7 -20 35 -20 38 0 38 0 29 -24 -4 -11 -19 -16 -45 -16 -24 0 -39 -5 -39
-12 0 -7 -3 -24 -7 -37 -6 -23 -4 -24 25 -18 34 7 35 5 26 -30 -5 -20 -13 -23
-53 -23 -26 0 -55 6 -65 13 -16 11 -17 18 -7 53 13 47 14 57 3 50 -4 -2 -14
-1 -20 3 -18 11 -4 39 21 43 29 4 36 38 8 38 -33 0 -22 34 14 43 15 3 13 5 -9
6 -21 1 -27 5 -22 17 3 9 6 20 6 25 0 5 9 9 19 9 12 0 21 9 25 25 5 21 12 25
46 25 29 0 40 -4 40 -15z m162 5 c2 -7 13 -7 34 0 17 6 56 10 86 8 l55 -3 -18
-75 c-11 -50 -24 -80 -39 -92 l-22 -18 22 0 c17 0 20 -4 15 -22 -9 -29 -33
-48 -61 -48 -17 0 -21 -4 -17 -20 4 -14 12 -20 27 -18 12 2 21 -2 20 -9 -1 -7
-2 -20 -2 -28 -2 -18 -63 -21 -95 -4 -16 9 -22 9 -25 0 -5 -15 -84 -14 -106 2
-18 13 -17 20 19 168 20 85 39 157 42 162 6 11 61 8 65 -3z"/>
<path d="M1722 1160 c-16 -70 -16 -70 21 -64 38 7 67 37 67 70 0 26 -4 29 -46
38 -30 7 -31 6 -42 -44z"/>
<path d="M1222 1053 c-18 -33 -24 -81 -12 -88 19 -11 38 16 46 63 5 35 4 42
-9 42 -9 0 -20 -8 -25 -17z"/>
<path d="M1951 1056 c-7 -8 -15 -34 -18 -57 -5 -36 -4 -41 13 -37 27 5 50 76
31 95 -12 12 -16 12 -26 -1z"/>
<path d="M1775 759 c-8 -26 -5 -30 22 -23 12 3 23 14 26 25 7 28 -39 26 -48
-2z"/>
<path d="M1757 683 c-4 -3 -7 -15 -7 -26 0 -13 5 -17 16 -13 9 3 19 6 24 6 4
0 10 9 13 20 4 16 0 20 -17 20 -13 0 -26 -3 -29 -7z"/>
<path d="M1737 593 c-4 -3 -7 -15 -7 -25 0 -13 7 -18 25 -18 20 0 25 5 25 25
0 18 -5 25 -18 25 -10 0 -22 -3 -25 -7z"/>
<path d="M1457 753 c-3 -17 -1 -21 7 -14 7 6 31 13 54 17 57 9 53 20 -7 20
-44 1 -50 -2 -54 -23z"/>
<path d="M1444 699 c-3 -5 18 -9 45 -9 28 0 51 4 51 8 0 11 -89 12 -96 1z"/>
<path d="M1421 596 c-14 -58 -15 -56 14 -56 23 0 25 3 25 50 0 65 -23 68 -39
6z"/>
<path d="M1520 625 c0 -8 7 -15 15 -15 8 0 15 7 15 15 0 8 -7 15 -15 15 -8 0
-15 -7 -15 -15z"/>
</g>
</svg>
